<?xml version="1.0" encoding="UTF-8" standalone="no"?>
<!DOCTYPE svg PUBLIC "-//W3C//DTD SVG 1.1//EN"
 "http://www.w3.org/Graphics/SVG/1.1/DTD/svg11.dtd">
<!-- Generated by graphviz version 2.43.0 (0)
 -->
<!-- Title: G Pages: 1 -->
<svg width="765pt" height="382pt"
 viewBox="0.00 0.00 764.80 382.39" xmlns="http://www.w3.org/2000/svg" xmlns:xlink="http://www.w3.org/1999/xlink">
<g id="graph0" class="graph" transform="scale(1 1) rotate(0) translate(4 378.39)">
<title>G</title><style>.edge>path:hover{stroke-width:8}</style>
<polygon fill="white" stroke="transparent" points="-4,4 -4,-378.39 760.8,-378.39 760.8,4 -4,4"/>
<!-- yfinance -->
<g id="node1" class="node">
<title>yfinance</title><style>.edge>path:hover{stroke-width:8}</style>
<ellipse fill="#950303" stroke="black" cx="396.67" cy="-18" rx="34.29" ry="18"/>
<text text-anchor="middle" x="396.67" y="-15.5" font-family="Helvetica,sans-Serif" font-size="10.00" fill="#ffffff">yfinance</text>
</g>
<!-- yfinance_cache -->
<g id="node2" class="node">
<title>yfinance_cache</title><style>.edge>path:hover{stroke-width:8}</style>
<ellipse fill="#b34c4c" stroke="black" cx="68.67" cy="-273.4" rx="52.28" ry="18"/>
<text text-anchor="middle" x="68.67" y="-270.9" font-family="Helvetica,sans-Serif" font-size="10.00" fill="#ffffff">yfinance.cache</text>
</g>
<!-- yfinance_cache&#45;&gt;yfinance -->
<g id="edge1" class="edge">
<title>yfinance_cache&#45;&gt;yfinance</title><style>.edge>path:hover{stroke-width:8}</style>
<path fill="none" stroke="black" d="M66.64,-255.24C64.91,-236.61 63.44,-206.08 68.67,-180.42"/>
</g>
<!-- yfinance_domain -->
<g id="node3" class="node">
<title>yfinance_domain</title><style>.edge>path:hover{stroke-width:8}</style>
<ellipse fill="#ac4949" stroke="black" cx="183.67" cy="-93.21" rx="43.27" ry="21.43"/>
<text text-anchor="middle" x="183.67" y="-96.21" font-family="Helvetica,sans-Serif" font-size="10.00" fill="#ffffff">yfinance.</text>
<text text-anchor="middle" x="183.67" y="-85.21" font-family="Helvetica,sans-Serif" font-size="10.00" fill="#ffffff">domain</text>
</g>
<!-- yfinance_domain&#45;&gt;yfinance -->
<g id="edge2" class="edge">
<title>yfinance_domain&#45;&gt;yfinance</title><style>.edge>path:hover{stroke-width:8}</style>
<path fill="none" stroke="black" d="M217.7,-80.06C225.26,-77.39 233.23,-74.58 240.67,-72 281.02,-57.99 327.38,-42.29 359.01,-31.64"/>
<polygon fill="#ac4949" stroke="black" points="360.37,-34.87 368.73,-28.37 358.14,-28.24 360.37,-34.87"/>
</g>
<!-- yfinance_domain_industry -->
<g id="node4" class="node">
<title>yfinance_domain_industry</title><style>.edge>path:hover{stroke-width:8}</style>
<ellipse fill="#b83d3d" stroke="black" cx="139.67" cy="-179.42" rx="43.27" ry="28.98"/>
<text text-anchor="middle" x="139.67" y="-187.92" font-family="Helvetica,sans-Serif" font-size="10.00" fill="#ffffff">yfinance.</text>
<text text-anchor="middle" x="139.67" y="-176.92" font-family="Helvetica,sans-Serif" font-size="10.00" fill="#ffffff">domain.</text>
<text text-anchor="middle" x="139.67" y="-165.92" font-family="Helvetica,sans-Serif" font-size="10.00" fill="#ffffff">industry</text>
</g>
<!-- yfinance_domain_industry&#45;&gt;yfinance -->
<g id="edge3" class="edge">
<title>yfinance_domain_industry&#45;&gt;yfinance</title><style>.edge>path:hover{stroke-width:8}</style>
<path fill="none" stroke="black" d="M106.94,-160.48C82.49,-144.55 55.4,-119.86 68.67,-94.21"/>
</g>
<!-- yfinance_domain_industry&#45;&gt;yfinance_domain -->
<g id="edge4" class="edge">
<title>yfinance_domain_industry&#45;&gt;yfinance_domain</title><style>.edge>path:hover{stroke-width:8}</style>
<path fill="none" stroke="black" d="M153.59,-151.77C158.39,-142.6 163.78,-132.28 168.66,-122.94"/>
<polygon fill="#b83d3d" stroke="black" points="171.8,-124.49 173.33,-114.01 165.59,-121.25 171.8,-124.49"/>
</g>
<!-- yfinance_domain_sector -->
<g id="node5" class="node">
<title>yfinance_domain_sector</title><style>.edge>path:hover{stroke-width:8}</style>
<ellipse fill="#b83d3d" stroke="black" cx="243.67" cy="-179.42" rx="43.27" ry="28.98"/>
<text text-anchor="middle" x="243.67" y="-187.92" font-family="Helvetica,sans-Serif" font-size="10.00" fill="#ffffff">yfinance.</text>
<text text-anchor="middle" x="243.67" y="-176.92" font-family="Helvetica,sans-Serif" font-size="10.00" fill="#ffffff">domain.</text>
<text text-anchor="middle" x="243.67" y="-165.92" font-family="Helvetica,sans-Serif" font-size="10.00" fill="#ffffff">sector</text>
</g>
<!-- yfinance_domain_sector&#45;&gt;yfinance -->
<g id="edge5" class="edge">
<title>yfinance_domain_sector&#45;&gt;yfinance</title><style>.edge>path:hover{stroke-width:8}</style>
<path fill="none" stroke="black" d="M244.94,-150.22C246.28,-133.61 249.03,-112.38 254.67,-94.21"/>
<path fill="none" stroke="black" d="M254.67,-92.21C267.42,-51.18 316.75,-32.99 353.71,-25.03"/>
<polygon fill="#b83d3d" stroke="black" points="354.63,-28.42 363.77,-23.05 353.28,-21.55 354.63,-28.42"/>
</g>
<!-- yfinance_domain_sector&#45;&gt;yfinance_domain -->
<g id="edge6" class="edge">
<title>yfinance_domain_sector&#45;&gt;yfinance_domain</title><style>.edge>path:hover{stroke-width:8}</style>
<path fill="none" stroke="black" d="M225.34,-152.7C218.36,-142.9 210.37,-131.69 203.28,-121.73"/>
<polygon fill="#b83d3d" stroke="black" points="205.97,-119.48 197.31,-113.36 200.27,-123.54 205.97,-119.48"/>
</g>
<!-- yfinance_multi -->
<g id="node6" class="node">
<title>yfinance_multi</title><style>.edge>path:hover{stroke-width:8}</style>
<ellipse fill="#b83d3d" stroke="black" cx="355.67" cy="-179.42" rx="50.75" ry="18"/>
<text text-anchor="middle" x="355.67" y="-176.92" font-family="Helvetica,sans-Serif" font-size="10.00" fill="#ffffff">yfinance.multi</text>
</g>
<!-- yfinance_multi&#45;&gt;yfinance -->
<g id="edge7" class="edge">
<title>yfinance_multi&#45;&gt;yfinance</title><style>.edge>path:hover{stroke-width:8}</style>
<path fill="none" stroke="black" d="M329.41,-163.87C297.55,-145.26 248.78,-113.18 254.67,-94.21"/>
</g>
<!-- yfinance_tickers -->
<g id="node11" class="node">
<title>yfinance_tickers</title><style>.edge>path:hover{stroke-width:8}</style>
<ellipse fill="#ac4949" stroke="black" cx="325.67" cy="-93.21" rx="43.27" ry="21.43"/>
<text text-anchor="middle" x="325.67" y="-96.21" font-family="Helvetica,sans-Serif" font-size="10.00" fill="#ffffff">yfinance.</text>
<text text-anchor="middle" x="325.67" y="-85.21" font-family="Helvetica,sans-Serif" font-size="10.00" fill="#ffffff">tickers</text>
</g>
<!-- yfinance_multi&#45;&gt;yfinance_tickers -->
<g id="edge8" class="edge">
<title>yfinance_multi&#45;&gt;yfinance_tickers</title><style>.edge>path:hover{stroke-width:8}</style>
<path fill="none" stroke="black" d="M349.6,-161.38C345.76,-150.61 340.7,-136.4 336.22,-123.83"/>
<polygon fill="#b83d3d" stroke="black" points="339.44,-122.43 332.79,-114.19 332.85,-124.78 339.44,-122.43"/>
</g>
<!-- yfinance_screener -->
<g id="node7" class="node">
<title>yfinance_screener</title><style>.edge>path:hover{stroke-width:8}</style>
<ellipse fill="#ac4949" stroke="black" cx="467.67" cy="-93.21" rx="43.27" ry="21.43"/>
<text text-anchor="middle" x="467.67" y="-96.21" font-family="Helvetica,sans-Serif" font-size="10.00" fill="#ffffff">yfinance.</text>
<text text-anchor="middle" x="467.67" y="-85.21" font-family="Helvetica,sans-Serif" font-size="10.00" fill="#ffffff">screener</text>
</g>
<!-- yfinance_screener&#45;&gt;yfinance -->
<g id="edge9" class="edge">
<title>yfinance_screener&#45;&gt;yfinance</title><style>.edge>path:hover{stroke-width:8}</style>
<path fill="none" stroke="black" d="M449.75,-73.74C440.33,-64.02 428.68,-52.01 418.71,-41.72"/>
<polygon fill="#ac4949" stroke="black" points="420.94,-39 411.47,-34.26 415.92,-43.87 420.94,-39"/>
</g>
<!-- yfinance_screener_screener -->
<g id="node8" class="node">
<title>yfinance_screener_screener</title><style>.edge>path:hover{stroke-width:8}</style>
<ellipse fill="#b03a3a" stroke="black" cx="467.67" cy="-179.42" rx="43.27" ry="28.98"/>
<text text-anchor="middle" x="467.67" y="-187.92" font-family="Helvetica,sans-Serif" font-size="10.00" fill="#ffffff">yfinance.</text>
<text text-anchor="middle" x="467.67" y="-176.92" font-family="Helvetica,sans-Serif" font-size="10.00" fill="#ffffff">screener.</text>
<text text-anchor="middle" x="467.67" y="-165.92" font-family="Helvetica,sans-Serif" font-size="10.00" fill="#ffffff">screener</text>
</g>
<!-- yfinance_screener_screener&#45;&gt;yfinance -->
<g id="edge10" class="edge">
<title>yfinance_screener_screener&#45;&gt;yfinance</title><style>.edge>path:hover{stroke-width:8}</style>
<path fill="none" stroke="black" d="M444.1,-155.12C433.88,-143.75 422.67,-129.32 415.67,-114.43 405.54,-92.89 400.81,-66.15 398.6,-46.46"/>
<polygon fill="#b03a3a" stroke="black" points="402.06,-45.94 397.61,-36.32 395.1,-46.62 402.06,-45.94"/>
</g>
<!-- yfinance_screener_screener&#45;&gt;yfinance_screener -->
<g id="edge11" class="edge">
<title>yfinance_screener_screener&#45;&gt;yfinance_screener</title><style>.edge>path:hover{stroke-width:8}</style>
<path fill="none" stroke="black" d="M467.67,-150.38C467.67,-142.17 467.67,-133.16 467.67,-124.8"/>
<polygon fill="#b03a3a" stroke="black" points="471.17,-124.67 467.67,-114.67 464.17,-124.67 471.17,-124.67"/>
</g>
<!-- yfinance_screener_screener_query -->
<g id="node9" class="node">
<title>yfinance_screener_screener_query</title><style>.edge>path:hover{stroke-width:8}</style>
<ellipse fill="#cc3333" stroke="black" cx="502.67" cy="-273.4" rx="65.11" ry="28.98"/>
<text text-anchor="middle" x="502.67" y="-281.9" font-family="Helvetica,sans-Serif" font-size="10.00" fill="#ffffff">yfinance.</text>
<text text-anchor="middle" x="502.67" y="-270.9" font-family="Helvetica,sans-Serif" font-size="10.00" fill="#ffffff">screener.</text>
<text text-anchor="middle" x="502.67" y="-259.9" font-family="Helvetica,sans-Serif" font-size="10.00" fill="#ffffff">screener_query</text>
</g>
<!-- yfinance_screener_screener_query&#45;&gt;yfinance -->
<g id="edge12" class="edge">
<title>yfinance_screener_screener_query&#45;&gt;yfinance</title><style>.edge>path:hover{stroke-width:8}</style>
<path fill="none" stroke="black" d="M538.67,-178.42C538.07,-130.38 549.52,-109.65 519.67,-72 499.88,-47.04 466.05,-33.61 438.87,-26.53"/>
<polygon fill="#cc3333" stroke="black" points="439.36,-23.05 428.82,-24.11 437.72,-29.85 439.36,-23.05"/>
</g>
<!-- yfinance_screener_screener_query&#45;&gt;yfinance_screener -->
<g id="edge13" class="edge">
<title>yfinance_screener_screener_query&#45;&gt;yfinance_screener</title><style>.edge>path:hover{stroke-width:8}</style>
<path fill="none" stroke="black" d="M519.6,-245.3C529.08,-227.52 538.95,-203.4 538.67,-180.42"/>
<path fill="none" stroke="black" d="M538.67,-178.42C538.36,-153.38 519.79,-131.93 501.72,-116.94"/>
<polygon fill="#cc3333" stroke="black" points="503.55,-113.93 493.52,-110.52 499.24,-119.44 503.55,-113.93"/>
</g>
<!-- yfinance_screener_screener_query&#45;&gt;yfinance_screener_screener -->
<g id="edge14" class="edge">
<title>yfinance_screener_screener_query&#45;&gt;yfinance_screener_screener</title><style>.edge>path:hover{stroke-width:8}</style>
<path fill="none" stroke="black" d="M491.98,-244.3C488.73,-235.77 485.11,-226.26 481.68,-217.24"/>
<polygon fill="#cc3333" stroke="black" points="484.88,-215.81 478.05,-207.71 478.34,-218.3 484.88,-215.81"/>
</g>
<!-- yfinance_ticker -->
<g id="node10" class="node">
<title>yfinance_ticker</title><style>.edge>path:hover{stroke-width:8}</style>
<ellipse fill="#b65353" stroke="black" cx="609.67" cy="-93.21" rx="43.27" ry="21.43"/>
<text text-anchor="middle" x="609.67" y="-96.21" font-family="Helvetica,sans-Serif" font-size="10.00" fill="#ffffff">yfinance.</text>
<text text-anchor="middle" x="609.67" y="-85.21" font-family="Helvetica,sans-Serif" font-size="10.00" fill="#ffffff">ticker</text>
</g>
<!-- yfinance_ticker&#45;&gt;yfinance -->
<g id="edge15" class="edge">
<title>yfinance_ticker&#45;&gt;yfinance</title><style>.edge>path:hover{stroke-width:8}</style>
<path fill="none" stroke="black" d="M575.64,-80.06C568.08,-77.39 560.11,-74.58 552.67,-72 512.32,-57.99 465.96,-42.29 434.33,-31.64"/>
<polygon fill="#b65353" stroke="black" points="435.2,-28.24 424.61,-28.37 432.97,-34.87 435.2,-28.24"/>
</g>
<!-- yfinance_tickers&#45;&gt;yfinance -->
<g id="edge16" class="edge">
<title>yfinance_tickers&#45;&gt;yfinance</title><style>.edge>path:hover{stroke-width:8}</style>
<path fill="none" stroke="black" d="M343.59,-73.74C353.01,-64.02 364.66,-52.01 374.63,-41.72"/>
<polygon fill="#ac4949" stroke="black" points="377.42,-43.87 381.87,-34.26 372.4,-39 377.42,-43.87"/>
</g>
<!-- yfinance_utils -->
<g id="node12" class="node">
<title>yfinance_utils</title><style>.edge>path:hover{stroke-width:8}</style>
<ellipse fill="#f30c0c" stroke="black" cx="68.67" cy="-356.39" rx="48.04" ry="18"/>
<text text-anchor="middle" x="68.67" y="-353.89" font-family="Helvetica,sans-Serif" font-size="10.00" fill="#ffffff">yfinance.utils</text>
</g>
<!-- yfinance_utils&#45;&gt;yfinance -->
<g id="edge17" class="edge">
<title>yfinance_utils&#45;&gt;yfinance</title><style>.edge>path:hover{stroke-width:8}</style>
<path fill="none" stroke="black" d="M43.44,-340.93C30.13,-331.77 15.06,-318.6 7.67,-302.39 -3.02,-278.94 -1.91,-268.33 7.67,-244.41 22.27,-207.93 60.82,-218.92 68.67,-180.42"/>
<path fill="none" stroke="black" d="M68.67,-178.42C74.78,-141.5 51.47,-127.45 68.67,-94.21"/>
<path fill="none" stroke="black" d="M68.67,-92.21C94.63,-42.02 269.11,-25.87 352.48,-20.98"/>
<polygon fill="#f30c0c" stroke="black" points="352.87,-24.46 362.66,-20.41 352.48,-17.47 352.87,-24.46"/>
</g>
<!-- yfinance_utils&#45;&gt;yfinance_cache -->
<g id="edge18" class="edge">
<title>yfinance_utils&#45;&gt;yfinance_cache</title><style>.edge>path:hover{stroke-width:8}</style>
<path fill="none" stroke="black" d="M68.67,-338.22C68.67,-327.59 68.67,-313.7 68.67,-301.6"/>
<polygon fill="#f30c0c" stroke="black" points="72.17,-301.55 68.67,-291.55 65.17,-301.55 72.17,-301.55"/>
</g>
<!-- yfinance_utils&#45;&gt;yfinance_domain_industry -->
<g id="edge19" class="edge">
<title>yfinance_utils&#45;&gt;yfinance_domain_industry</title><style>.edge>path:hover{stroke-width:8}</style>
<path fill="none" stroke="black" d="M116.53,-353.85C171.01,-349.23 257.85,-332.53 299.67,-274.4"/>
<path fill="none" stroke="black" d="M299.67,-272.4C301.67,-269.62 229.62,-229.52 181.55,-203.2"/>
<polygon fill="#f30c0c" stroke="black" points="183.03,-200.02 172.58,-198.29 179.68,-206.16 183.03,-200.02"/>
</g>
<!-- yfinance_utils&#45;&gt;yfinance_domain_sector -->
<g id="edge20" class="edge">
<title>yfinance_utils&#45;&gt;yfinance_domain_sector</title><style>.edge>path:hover{stroke-width:8}</style>
<path fill="none" stroke="black" d="M299.67,-272.4C314.42,-251.9 298.01,-227.43 279.22,-208.88"/>
<polygon fill="#f30c0c" stroke="black" points="281.38,-206.1 271.68,-201.83 276.6,-211.22 281.38,-206.1"/>
</g>
<!-- yfinance_utils&#45;&gt;yfinance_multi -->
<g id="edge21" class="edge">
<title>yfinance_utils&#45;&gt;yfinance_multi</title><style>.edge>path:hover{stroke-width:8}</style>
<path fill="none" stroke="black" d="M299.67,-272.4C315.17,-250.85 330.71,-224.9 341.47,-206.07"/>
<polygon fill="#f30c0c" stroke="black" points="344.62,-207.62 346.49,-197.19 338.52,-204.17 344.62,-207.62"/>
</g>
<!-- yfinance_utils&#45;&gt;yfinance_screener_screener -->
<g id="edge22" class="edge">
<title>yfinance_utils&#45;&gt;yfinance_screener_screener</title><style>.edge>path:hover{stroke-width:8}</style>
<path fill="none" stroke="black" d="M299.67,-272.4C300.71,-270.95 376.44,-229.79 425.85,-203.03"/>
<polygon fill="#f30c0c" stroke="black" points="427.62,-206.05 434.75,-198.21 424.29,-199.9 427.62,-206.05"/>
</g>
<!-- yfinance_version -->
<g id="node13" class="node">
<title>yfinance_version</title><style>.edge>path:hover{stroke-width:8}</style>
<ellipse fill="#b65353" stroke="black" cx="713.67" cy="-93.21" rx="43.27" ry="21.43"/>
<text text-anchor="middle" x="713.67" y="-96.21" font-family="Helvetica,sans-Serif" font-size="10.00" fill="#ffffff">yfinance.</text>
<text text-anchor="middle" x="713.67" y="-85.21" font-family="Helvetica,sans-Serif" font-size="10.00" fill="#ffffff">version</text>
</g>
<!-- yfinance_version&#45;&gt;yfinance -->
<g id="edge23" class="edge">
<title>yfinance_version&#45;&gt;yfinance</title><style>.edge>path:hover{stroke-width:8}</style>
<path fill="none" stroke="black" d="M681.79,-78.82C675.21,-76.34 668.27,-73.93 661.67,-72 584.61,-49.5 492.19,-33.4 439.36,-25.2"/>
<polygon fill="#b65353" stroke="black" points="439.75,-21.72 429.33,-23.66 438.69,-28.64 439.75,-21.72"/>
</g>
</g>
</svg>
